#!OML:ASF H:\GeneralSubjects\Female5\Project 1\Capture day 1\Session 1\Female5.ASF
:FULLY-SPECIFIED
:DEGREES
629
root 24.7773 16.2356 3.84389 -167.634 5.95734 -180.248
lowerback 9.1599 1.32658 5.81047
upperback -9.56448 3.56277 0.73147
thorax -15.6219 1.3283 -3.29724
lowerneck -11.7573 8.39889 10.8072
upperneck 27.9077 15.6641 -10.7017
head 12.9933 7.82917 -3.2694
rclavicle -2.43511e-015 -5.40694e-014
rhumerus -56.5814 14.7065 -79.2757
rradius 31.0921
rwrist -10.6223
rhand -26.4655 -17.7324
rfingers 7.12502
rthumb 0.0961745 -47.7121
lclavicle -2.43511e-015 -5.40694e-014
lhumerus -48.3332 2.06794 67.966
lradius 33.5902
lwrist -4.11803
lhand -30.6498 27.9484
lfingers 7.12502
lthumb -3.94498 57.8917
rfemur -8.42792 16.9976 20.9757
rtibia 3.06157
rfoot -13.6682 -9.29468
rtoes -18.1724
lfemur -17.6106 -9.20873 -2.26092
ltibia 19.0878
lfoot -36.6557 11.6214
ltoes -28.6225
630
root 24.6183 16.2062 3.82484 -167.717 6.08942 -180.33
lowerback 9.20462 1.23409 5.31148
upperback -9.57014 3.34881 0.733361
thorax -15.6952 1.27931 -2.97291
lowerneck -11.516 8.60136 11.4449
upperneck 27.6763 15.8255 -10.8986
head 12.9506 7.939 -3.43037
rclavicle -1.77912e-014 -3.49861e-014
rhumerus -56.3196 14.809 -79.1187
rradius 30.5241
rwrist -10.1426
rhand -26.5773 -17.7123
rfingers 7.12502
rthumb -0.0118207 -47.692
lclavicle -1.77912e-014 -3.49861e-014
lhumerus -48.591 2.12788 67.8623
lradius 33.6985
lwrist -3.64435
lhand -30.2848 27.0529
lfingers 7.12502
lthumb -3.59247 57.0024
rfemur -9.19909 15.832 20.0637
rtibia 4.52781
rfoot -13.8087 -7.61841
rtoes -16.7767
lfemur -16.4179 -10.9735 -0.913858
ltibia 17.6499
lfoot -38.5988 11.4152
ltoes -26.8695
631
root 24.4483 16.1677 3.80147 -167.921 6.28062 -180.607
lowerback 9.31058 1.3272 4.85572
upperback -9.54625 3.36048 0.537371
thorax -15.7353 1.31179 -2.94454
lowerneck -11.391 8.57516 11.7805
upperneck 27.5289 15.6603 -10.9094
head 12.872 7.89323 -3.52716
rclavicle -1.42131e-014 -2.38542e-015
rhumerus -56.1446 14.3782 -78.7649
rradius 30.0618
rwrist -9.79286
rhand -26.7886 -17.8544
rfingers 7.12502
rthumb -0.215959 -47.834
lclavicle -1.42131e-014 -2.38542e-015
lhumerus -48.5481 1.71502 67.9806
lradius 33.5782
lwrist -3.41306
lhand -27.7647 26.5741
lfingers 7.12502
lthumb -1.15868 56.5507
rfemur -9.88152 14.5228 18.9133
rtibia 6.01059
rfoot -13.8708 -6.00059
rtoes -14.9993
lfemur -14.995 -13.1441 0.00704173
ltibia 16.0771
lfoot -40.7751 10.7525
ltoes -25.0608
632
root 24.2721 16.1227 3.7805 -168.151 6.40406 -180.829
lowerback 9.38249 1.38026 4.41848
upperback -9.45354 3.30896 0.365985
thorax -15.675 1.31606 -2.87993
lowerneck -11.4309 8.8038 12.0661
upperneck 27.4313 15.7162 -10.5345
head 12.8375 7.9564 -3.41981
rclavicle -1.00386e-014 1.35174e-014
rhumerus -55.7807 14.0198 -78.5353
rradius 29.598
rwrist -9.60359
rhand -26.9018 -18.1181
rfingers 7.12502
rthumb -0.325225 -48.0976
lclavicle -1.00386e-014 1.35174e-014
lhumerus -48.408 1.56517 67.9855
lradius 33.5035
lwrist -3.77258
lhand -24.194 26.6315
lfingers 7.12502
lthumb 2.28997 56.5989
rfemur -10.4768 13.1708 17.8261
rtibia 7.32929
rfoot -13.4502 -4.32194
rtoes -12.8057
lfemur -13.7095 -15.2205 0.887637
ltibia 14.7223
lfoot -42.404 10.8487
ltoes -24.0435
633
root 24.081 16.0679 3.75893 -168.4 6.43448 -180.783
lowerback 9.58244 1.75582 5.04781
upperback -9.38043 3.85006 -0.117758
thorax -15.6036 1.45198 -3.89898
lowerneck -11.682 8.49734 11.6177
upperneck 27.418 15.0394 -9.84441
head 12.6784 7.66125 -3.20229
rclavicle -1.04362e-015 -7.15625e-015
rhumerus -55.751 12.4768 -77.96
rradius 29.2255
rwrist -9.3481
rhand -27.0636 -18.5094
rfingers 7.12502
rthumb -0.481541 -48.4886
lclavicle -1.04362e-015 -7.15625e-015
lhumerus -47.7862 -0.161185 68.9491
lradius 33.3266
lwrist -2.81579
lhand -26.4758 27.1482
lfingers 7.12502
lthumb 0.0861593 57.1279
rfemur -10.978 11.7325 17.0228
rtibia 8.59436
rfoot -12.6962 -2.59676
rtoes -9.98116
lfemur -12.5288 -17.0864 1.91493
ltibia 13.6137
lfoot -43.1837 11.3479
ltoes -23.5953
